<svg width="36" height="47" viewBox="0 0 36 47" fill="none" xmlns="http://www.w3.org/2000/svg">
<path d="M0.0454545 47V0.454544H18.4091C21.9394 0.454544 24.947 1.12879 27.4318 2.47727C29.9167 3.81061 31.8106 5.66667 33.1136 8.04545C34.4318 10.4091 35.0909 13.1364 35.0909 16.2273C35.0909 19.3182 34.4242 22.0455 33.0909 24.4091C31.7576 26.7727 29.8258 28.6136 27.2955 29.9318C24.7803 31.25 21.7348 31.9091 18.1591 31.9091H6.45455V24.0227H16.5682C18.4621 24.0227 20.0227 23.697 21.25 23.0455C22.4924 22.3788 23.4167 21.4621 24.0227 20.2955C24.6439 19.1136 24.9545 17.7576 24.9545 16.2273C24.9545 14.6818 24.6439 13.3333 24.0227 12.1818C23.4167 11.0151 22.4924 10.1136 21.25 9.47727C20.0076 8.82576 18.4318 8.5 16.5227 8.5H9.88636V47H0.0454545Z" fill="#FF7A0F"/>
</svg>
